<svg xmlns="http://www.w3.org/2000/svg" width="924" height="270" viewBox="0 0 924 270">
<g>
<path d="M 223.52 188.56 C219.45,190.26 214.31,190.38 211.50,188.85 C208.97,187.46 194.00,172.82 194.00,171.73 C194.00,170.43 203.16,161.00 204.42,161.00 C205.05,161.00 208.01,163.48 211.00,166.50 C213.99,169.52 216.90,172.00 217.48,172.00 C218.05,172.00 227.06,163.45 237.50,153.00 L 256.48 134.00 L 237.50 115.00 C227.06,104.55 218.07,96.00 217.51,96.00 C216.95,96.01 208.26,104.55 198.18,115.00 L 179.86 133.99 L 182.04 137.05 C183.24,138.74 183.96,140.37 183.64,140.69 C183.33,141.01 177.09,142.73 169.78,144.52 L 156.50 147.78 L 156.19 144.90 C156.02,143.32 156.58,138.27 157.44,133.68 C158.30,129.10 159.01,124.25 159.02,122.92 C159.02,121.59 159.45,119.84 159.96,119.03 C160.75,117.78 161.25,117.89 163.26,119.78 C164.56,121.00 166.10,122.00 166.67,122.00 C167.24,122.00 175.98,113.37 186.10,102.83 C196.22,92.28 206.50,82.38 208.95,80.83 C214.98,76.99 220.20,77.03 226.08,80.95 C231.04,84.25 270.13,123.29 271.88,126.68 C273.23,129.32 273.35,136.95 272.08,140.29 C270.67,144.01 227.54,186.88 223.52,188.56 ZM 166.60 188.52 C157.66,192.26 154.44,190.20 128.84,164.36 C113.04,148.42 105.14,141.23 105.14,134.03 C105.14,127.50 111.65,120.97 124.66,107.91 C126.00,106.57 127.40,105.16 128.87,103.68 C141.32,91.12 152.72,80.21 154.20,79.43 C157.42,77.72 164.27,77.56 167.32,79.11 C170.76,80.86 184.00,94.28 184.00,96.01 C184.00,96.87 181.77,99.77 179.05,102.45 L 174.10 107.33 L 167.64 101.66 C164.10,98.55 160.80,96.00 160.31,96.00 C159.12,96.00 123.00,132.37 123.00,133.57 C123.00,134.09 131.55,143.06 142.00,153.50 L 161.00 172.48 L 180.00 153.50 C190.45,143.06 199.00,134.09 199.00,133.57 C199.00,133.05 198.02,131.59 196.83,130.32 C195.64,129.05 194.85,127.82 195.08,127.59 C195.66,127.03 215.73,121.88 219.75,121.27 C221.54,121.00 223.00,121.17 223.00,121.64 C222.99,123.19 218.93,147.45 218.36,149.34 C217.85,151.04 217.58,150.97 215.10,148.59 C213.61,147.17 212.15,146.00 211.86,146.00 C211.57,146.00 202.06,155.24 190.73,166.52 C178.31,178.89 168.73,187.63 166.60,188.52 ZM 713.12 152.50 L 712.50 174.50 L 704.83 174.79 C698.15,175.04 697.11,174.85 696.73,173.29 C696.50,172.31 696.35,153.50 696.40,131.50 L 696.50 91.50 L 702.75 91.20 C706.19,91.04 709.73,91.31 710.62,91.81 C711.51,92.30 714.32,95.46 716.87,98.83 C727.71,113.15 746.62,136.82 750.32,140.71 C752.53,143.02 754.76,144.65 755.28,144.33 C755.87,143.96 755.95,134.30 755.50,118.87 C754.93,99.65 755.05,93.65 756.00,92.49 C757.62,90.55 770.25,90.39 771.83,92.30 C772.57,93.19 772.79,106.02 772.55,133.55 C772.35,155.52 772.15,173.84 772.10,174.25 C772.04,174.66 768.90,175.00 765.10,175.00 L 758.21 175.00 L 752.30 168.25 C749.05,164.54 745.52,160.32 744.45,158.88 C738.01,150.23 715.54,123.00 714.84,123.00 C714.38,123.00 713.94,124.69 713.87,126.75 C713.80,128.81 713.47,140.40 713.12,152.50 ZM 810.36 173.52 C809.92,174.64 808.01,175.00 802.45,175.00 C798.42,175.00 794.90,174.64 794.63,174.21 C793.83,172.91 793.59,93.47 794.39,92.18 C795.26,90.78 806.80,90.59 808.95,91.95 C810.13,92.70 810.35,96.06 810.15,110.84 C810.00,121.72 810.29,129.06 810.88,129.43 C811.42,129.76 814.25,127.26 817.18,123.87 C826.57,113.01 839.39,98.63 843.13,94.76 L 846.76 91.00 L 855.88 91.00 C860.90,91.00 865.00,91.41 865.00,91.91 C865.00,92.40 858.23,100.17 849.96,109.16 C841.69,118.15 834.51,126.22 834.01,127.09 C833.06,128.76 833.59,129.57 847.52,148.00 C861.75,166.81 866.00,172.76 866.00,173.89 C866.00,174.74 863.39,174.99 856.81,174.79 L 847.63 174.50 L 835.31 157.50 C828.53,148.15 822.50,140.34 821.91,140.14 C820.51,139.67 814.26,145.67 812.37,149.30 C811.36,151.21 810.91,155.23 810.91,162.06 C810.92,167.55 810.67,172.70 810.36,173.52 ZM 413.09 174.45 C412.58,174.76 409.52,175.29 406.28,175.63 C401.84,176.09 400.03,175.89 398.94,174.80 C397.73,173.59 397.51,166.95 397.56,133.39 C397.59,111.41 397.95,92.88 398.37,92.21 C399.36,90.61 411.20,90.60 412.80,92.20 C413.65,93.05 414.00,98.82 414.00,111.78 C414.00,123.36 414.36,130.04 414.98,129.83 C415.52,129.65 423.01,121.40 431.63,111.50 C440.24,101.60 447.95,93.11 448.76,92.63 C450.51,91.61 465.97,91.14 466.56,92.10 C467.13,93.02 464.23,96.52 439.79,124.41 C438.30,126.11 437.06,128.08 437.04,128.78 C437.02,129.49 441.40,136.01 446.78,143.28 C460.71,162.11 468.00,172.63 468.00,173.90 C468.00,174.62 464.89,175.00 459.07,175.00 L 450.14 175.00 L 444.24 166.75 C441.00,162.21 435.73,154.56 432.52,149.75 C429.10,144.61 426.01,141.00 425.04,141.00 C424.13,141.00 421.27,143.44 418.69,146.43 L 414.00 151.87 L 414.00 162.87 C414.00,168.93 413.59,174.14 413.09,174.45 ZM 360.30 175.38 C356.34,176.27 351.62,176.95 349.80,176.90 C338.78,176.56 318.80,168.62 318.19,164.33 C318.02,163.14 319.04,159.88 320.46,157.08 L 323.03 152.00 L 330.77 155.94 C339.67,160.48 345.14,161.94 353.30,161.98 C362.89,162.02 366.68,158.81 365.83,151.40 C365.37,147.40 361.35,145.05 347.38,140.57 C328.35,134.48 324.83,132.26 321.08,123.98 C318.64,118.60 318.49,114.10 320.52,107.25 C325.29,91.17 351.13,84.98 373.01,94.68 C380.07,97.82 380.72,99.13 377.88,104.65 C374.39,111.43 373.32,111.79 366.58,108.49 C359.79,105.17 348.00,103.93 342.99,106.01 C336.38,108.74 334.12,115.21 338.31,119.41 C340.34,121.43 357.94,128.00 361.34,128.00 C363.55,128.00 376.47,134.68 378.35,136.79 C382.48,141.44 384.20,152.32 382.02,159.94 C380.84,164.03 375.84,169.49 371.00,171.96 C369.08,172.95 364.26,174.48 360.30,175.38 ZM 647.50 161.50 L 647.50 174.50 L 617.93 174.76 C601.67,174.91 588.06,174.72 587.68,174.35 C587.31,173.97 587.00,155.61 587.00,133.53 C587.00,103.65 587.31,93.09 588.20,92.20 C589.90,90.50 602.91,90.59 603.57,92.31 C603.84,93.03 604.17,108.67 604.28,127.06 L 604.50 160.50 ZM 575.50 161.50 L 575.50 174.50 L 546.32 174.76 C530.27,174.91 516.96,174.69 516.74,174.26 C516.53,173.84 516.27,155.55 516.17,133.60 C516.05,105.33 516.33,93.31 517.12,92.35 C518.43,90.78 529.65,90.49 532.00,91.98 C533.29,92.79 533.50,97.77 533.50,126.71 L 533.50 160.50 ZM 675.35 174.25 C674.52,175.58 660.98,175.13 660.55,173.75 C660.33,173.06 659.94,154.66 659.67,132.86 C659.32,104.58 659.50,92.90 660.29,92.11 C661.63,90.77 672.91,90.66 674.97,91.96 C676.23,92.76 676.40,98.58 676.12,133.20 C675.95,155.36 675.60,173.84 675.35,174.25 ZM 496.76 133.73 L 496.50 174.50 L 489.46 174.79 C485.58,174.95 482.09,174.76 481.71,174.37 C481.32,173.98 481.00,155.34 481.00,132.95 L 481.00 92.23 L 486.31 91.57 C489.30,91.19 492.80,91.35 494.32,91.93 L 497.02 92.96 Z" fill="rgb(11,71,105)"/>
<path d="M 0.00 135.00 L 0.00 0.00 L 462.00 0.00 L 924.00 0.00 L 924.00 135.00 L 924.00 270.00 L 462.00 270.00 L 0.00 270.00 L 0.00 135.00 ZM 166.60 188.52 C168.73,187.63 178.31,178.89 190.73,166.52 C202.06,155.24 211.57,146.00 211.86,146.00 C212.15,146.00 213.61,147.17 215.10,148.59 C217.58,150.97 217.85,151.04 218.36,149.34 C218.93,147.45 222.99,123.19 223.00,121.64 C223.00,121.17 221.54,121.00 219.75,121.27 C215.73,121.88 195.66,127.03 195.08,127.59 C194.85,127.82 195.64,129.05 196.83,130.32 C198.02,131.59 199.00,133.05 199.00,133.57 C199.00,134.09 190.45,143.06 180.00,153.50 L 161.00 172.48 L 142.00 153.50 C131.55,143.06 123.00,134.09 123.00,133.57 C123.00,132.37 159.12,96.00 160.31,96.00 C160.80,96.00 164.10,98.55 167.64,101.66 L 174.10 107.33 L 179.05 102.45 C181.77,99.77 184.00,96.87 184.00,96.01 C184.00,94.28 170.76,80.86 167.32,79.11 C164.27,77.56 157.42,77.72 154.20,79.43 C152.72,80.21 141.32,91.12 128.87,103.68 C97.24,135.58 97.24,132.48 128.84,164.36 C154.44,190.20 157.66,192.26 166.60,188.52 ZM 223.52 188.56 C227.54,186.88 270.67,144.01 272.08,140.29 C273.35,136.95 273.23,129.32 271.88,126.68 C270.13,123.29 231.04,84.25 226.08,80.95 C220.20,77.03 214.98,76.99 208.95,80.83 C206.50,82.38 196.22,92.28 186.10,102.83 C175.98,113.37 167.24,122.00 166.67,122.00 C166.10,122.00 164.56,121.00 163.26,119.78 C161.25,117.89 160.75,117.78 159.96,119.03 C159.45,119.84 159.02,121.59 159.02,122.92 C159.01,124.25 158.30,129.10 157.44,133.68 C156.58,138.27 156.02,143.32 156.19,144.90 L 156.50 147.78 L 169.78 144.52 C177.09,142.73 183.33,141.01 183.64,140.69 C183.96,140.37 183.24,138.74 182.04,137.05 L 179.86 133.99 L 198.18 115.00 C208.26,104.55 216.95,96.01 217.51,96.00 C218.07,96.00 227.06,104.55 237.50,115.00 L 256.48 134.00 L 237.50 153.00 C227.06,163.45 218.05,172.00 217.48,172.00 C216.90,172.00 213.99,169.52 211.00,166.50 C208.01,163.48 205.05,161.00 204.42,161.00 C203.16,161.00 194.00,170.43 194.00,171.73 C194.00,172.82 208.97,187.46 211.50,188.85 C214.31,190.38 219.45,190.26 223.52,188.56 ZM 360.30 175.38 C364.26,174.48 369.08,172.95 371.00,171.96 C375.84,169.49 380.84,164.03 382.02,159.94 C384.20,152.32 382.48,141.44 378.35,136.79 C376.47,134.68 363.55,128.00 361.34,128.00 C357.94,128.00 340.34,121.43 338.31,119.41 C334.12,115.21 336.38,108.74 342.99,106.01 C348.00,103.93 359.79,105.17 366.58,108.49 C373.32,111.79 374.39,111.43 377.88,104.65 C380.72,99.13 380.07,97.82 373.01,94.68 C351.13,84.98 325.29,91.17 320.52,107.25 C318.49,114.10 318.64,118.60 321.08,123.98 C324.83,132.26 328.35,134.48 347.38,140.57 C361.35,145.05 365.37,147.40 365.83,151.40 C366.68,158.81 362.89,162.02 353.30,161.98 C345.14,161.94 339.67,160.48 330.77,155.94 L 323.03 152.00 L 320.46 157.08 C319.04,159.88 318.02,163.14 318.19,164.33 C318.80,168.62 338.78,176.56 349.80,176.90 C351.62,176.95 356.34,176.27 360.30,175.38 ZM 413.09 174.45 C413.59,174.14 414.00,168.93 414.00,162.87 L 414.00 151.87 L 418.69 146.43 C421.27,143.44 424.13,141.00 425.04,141.00 C426.01,141.00 429.10,144.61 432.52,149.75 C435.73,154.56 441.00,162.21 444.24,166.75 L 450.14 175.00 L 459.07 175.00 C464.89,175.00 468.00,174.62 468.00,173.90 C468.00,172.63 460.71,162.11 446.78,143.28 C441.40,136.01 437.02,129.49 437.04,128.78 C437.06,128.08 438.30,126.11 439.79,124.41 C464.23,96.52 467.13,93.02 466.56,92.10 C465.97,91.14 450.51,91.61 448.76,92.63 C447.95,93.11 440.24,101.60 431.63,111.50 C423.01,121.40 415.52,129.65 414.98,129.83 C414.36,130.04 414.00,123.36 414.00,111.78 C414.00,98.82 413.65,93.05 412.80,92.20 C411.20,90.60 399.36,90.61 398.37,92.21 C397.95,92.88 397.59,111.41 397.56,133.39 C397.51,166.95 397.73,173.59 398.94,174.80 C400.03,175.89 401.84,176.09 406.28,175.63 C409.52,175.29 412.58,174.76 413.09,174.45 ZM 496.76 133.73 L 497.02 92.96 L 494.32 91.93 C492.80,91.35 489.30,91.19 486.31,91.57 L 481.00 92.23 L 481.00 132.95 C481.00,155.34 481.32,173.98 481.71,174.37 C482.09,174.76 485.58,174.95 489.46,174.79 L 496.50 174.50 L 496.76 133.73 ZM 575.50 168.00 L 575.50 161.50 L 554.50 161.00 L 533.50 160.50 L 533.50 126.71 C533.50,97.77 533.29,92.79 532.00,91.98 C529.65,90.49 518.43,90.78 517.12,92.35 C516.33,93.31 516.05,105.33 516.17,133.60 C516.27,155.55 516.53,173.84 516.74,174.26 C516.96,174.69 530.27,174.91 546.32,174.76 L 575.50 174.50 L 575.50 168.00 ZM 647.50 168.00 L 647.50 161.50 L 626.00 161.00 L 604.50 160.50 L 604.28 127.06 C604.17,108.67 603.84,93.03 603.57,92.31 C602.91,90.59 589.90,90.50 588.20,92.20 C587.31,93.09 587.00,103.65 587.00,133.53 C587.00,155.61 587.31,173.97 587.68,174.35 C588.06,174.72 601.67,174.91 617.93,174.76 L 647.50 174.50 L 647.50 168.00 ZM 675.35 174.25 C675.60,173.84 675.95,155.36 676.12,133.20 C676.40,98.58 676.23,92.76 674.97,91.96 C672.91,90.66 661.63,90.77 660.29,92.11 C659.50,92.90 659.32,104.58 659.67,132.86 C659.94,154.66 660.33,173.06 660.55,173.75 C660.98,175.13 674.52,175.58 675.35,174.25 ZM 713.12 152.50 C713.47,140.40 713.80,128.81 713.87,126.75 C713.94,124.69 714.38,123.00 714.84,123.00 C715.54,123.00 738.01,150.23 744.45,158.88 C745.52,160.32 749.05,164.54 752.30,168.25 L 758.21 175.00 L 765.10 175.00 C768.90,175.00 772.04,174.66 772.10,174.25 C772.15,173.84 772.35,155.52 772.55,133.55 C772.79,106.02 772.57,93.19 771.83,92.30 C770.25,90.39 757.62,90.55 756.00,92.49 C755.05,93.65 754.93,99.65 755.50,118.87 C755.95,134.30 755.87,143.96 755.28,144.33 C754.76,144.65 752.53,143.02 750.32,140.71 C746.62,136.82 727.71,113.15 716.87,98.83 C714.32,95.46 711.51,92.30 710.62,91.81 C709.73,91.31 706.19,91.04 702.75,91.20 L 696.50 91.50 L 696.40 131.50 C696.35,153.50 696.50,172.31 696.73,173.29 C697.11,174.85 698.15,175.04 704.83,174.79 L 712.50 174.50 L 713.12 152.50 ZM 810.36 173.52 C810.67,172.70 810.92,167.55 810.91,162.06 C810.91,155.23 811.36,151.21 812.37,149.30 C814.26,145.67 820.51,139.67 821.91,140.14 C822.50,140.34 828.53,148.15 835.31,157.50 L 847.63 174.50 L 856.81 174.79 C863.39,174.99 866.00,174.74 866.00,173.89 C866.00,172.76 861.75,166.81 847.52,148.00 C833.59,129.57 833.06,128.76 834.01,127.09 C834.51,126.22 841.69,118.15 849.96,109.16 C858.23,100.17 865.00,92.40 865.00,91.91 C865.00,91.41 860.90,91.00 855.88,91.00 L 846.76 91.00 L 843.13 94.76 C839.39,98.63 826.57,113.01 817.18,123.87 C814.25,127.26 811.42,129.76 810.88,129.43 C810.29,129.06 810.00,121.72 810.15,110.84 C810.35,96.06 810.13,92.70 808.95,91.95 C806.80,90.59 795.26,90.78 794.39,92.18 C793.59,93.47 793.83,172.91 794.63,174.21 C794.90,174.64 798.42,175.00 802.45,175.00 C808.01,175.00 809.92,174.64 810.36,173.52 Z" fill="rgb(253,254,254)"/>
</g>
</svg>