<svg xmlns="http://www.w3.org/2000/svg" width="666" height="375" viewBox="0 0 666 375">
<g>
<path d="M 414.11 325.20 C411.03,326.55 406.67,327.33 401.00,327.57 C391.89,327.95 388.51,327.38 383.00,324.53 C378.55,322.23 346.77,290.32 347.19,288.58 C347.71,286.41 369.66,264.00 371.26,264.00 C372.08,264.00 378.65,270.08 385.85,277.50 C393.06,284.92 399.32,291.00 399.77,291.00 C400.21,291.00 409.07,282.02 419.44,271.03 C429.82,260.05 448.37,241.33 460.67,229.43 C472.98,217.53 483.50,206.94 484.06,205.89 C484.95,204.23 479.65,198.53 442.54,161.24 L 400.00 118.50 L 357.53 161.00 C334.18,184.38 315.05,204.21 315.03,205.08 C315.02,205.95 317.70,209.03 321.00,211.92 C324.30,214.81 327.00,217.75 327.00,218.46 C327.00,219.69 320.24,221.99 310.98,223.90 C308.52,224.40 298.40,226.84 288.50,229.31 C278.60,231.78 268.75,234.10 266.60,234.47 L 262.71 235.15 L 263.40 228.32 C263.77,224.57 265.39,213.85 266.99,204.50 C268.59,195.15 270.43,183.10 271.07,177.73 C271.72,172.36 272.59,167.75 273.00,167.50 C273.41,167.24 276.69,169.73 280.28,173.02 C283.87,176.31 287.41,178.95 288.15,178.88 C288.89,178.81 293.98,173.97 299.45,168.13 C304.92,162.28 324.84,141.67 343.72,122.31 C374.77,90.48 378.66,86.83 384.52,84.06 C390.16,81.40 392.10,81.00 399.47,81.00 C414.11,81.00 415.12,81.69 446.63,113.29 C461.55,128.26 483.16,149.78 494.66,161.11 C520.60,186.68 522.46,189.55 522.48,204.00 C522.49,204.56 522.49,205.11 522.49,205.63 C522.51,208.42 522.52,210.65 522.15,212.82 C520.59,222.04 512.15,230.10 467.85,274.24 C429.38,312.58 417.73,323.62 414.11,325.20 ZM 289.52 324.62 C285.52,326.45 281.62,327.38 277.09,327.59 C262.90,328.23 257.76,325.58 242.00,309.44 C235.12,302.40 213.59,280.86 194.15,261.57 C152.52,220.28 152.54,220.31 152.52,205.00 C152.52,204.39 152.51,203.81 152.51,203.25 C152.49,200.03 152.48,197.56 152.94,195.18 C154.56,186.88 161.99,179.72 195.39,145.95 C216.90,124.20 238.77,101.96 244.00,96.53 C256.28,83.77 262.43,80.57 274.48,80.67 C287.76,80.77 291.35,82.97 310.71,102.84 C319.63,112.01 326.95,120.24 326.97,121.14 C327.01,123.45 305.34,144.00 302.86,144.00 C301.64,144.00 295.89,139.11 288.18,131.50 C281.21,124.63 275.04,119.01 274.48,119.00 C273.36,119.00 189.00,203.34 189.00,204.47 C189.00,204.86 208.33,224.54 231.95,248.21 L 274.90 291.23 L 360.90 204.50 L 354.73 198.25 C349.38,192.83 348.76,191.83 350.03,190.64 C350.84,189.88 358.92,187.44 368.00,185.21 C377.08,182.99 389.45,179.78 395.50,178.09 C408.78,174.37 412.00,174.17 412.00,177.04 C412.00,178.17 409.93,191.11 407.39,205.79 C404.86,220.48 402.55,234.42 402.26,236.77 C401.97,239.12 401.30,241.31 400.77,241.64 C400.25,241.97 397.07,239.48 393.72,236.12 C390.36,232.75 387.19,230.00 386.66,230.00 C385.58,230.00 348.35,267.20 316.38,300.23 C298.53,318.67 294.47,322.36 289.52,324.62 Z" fill="rgb(5,83,119)"/>
<path d="M 0.00 187.50 L 0.00 0.00 L 333.00 0.00 L 666.00 0.00 L 666.00 187.50 L 666.00 375.00 L 333.00 375.00 L 0.00 375.00 L 0.00 187.50 ZM 289.52 324.62 C294.47,322.36 298.53,318.67 316.38,300.23 C348.35,267.20 385.58,230.00 386.66,230.00 C387.19,230.00 390.36,232.75 393.72,236.12 C397.07,239.48 400.25,241.97 400.77,241.64 C401.30,241.31 401.97,239.12 402.26,236.77 C402.55,234.42 404.86,220.48 407.39,205.79 C409.93,191.11 412.00,178.17 412.00,177.04 C412.00,174.17 408.78,174.37 395.50,178.09 C389.45,179.78 377.08,182.99 368.00,185.21 C358.92,187.44 350.84,189.88 350.03,190.64 C348.76,191.83 349.38,192.83 354.73,198.25 L 360.90 204.50 L 317.90 247.87 L 274.90 291.23 L 231.95 248.21 C208.33,224.54 189.00,204.86 189.00,204.47 C189.00,203.34 273.36,119.00 274.48,119.00 C275.04,119.01 281.21,124.63 288.18,131.50 C295.89,139.11 301.64,144.00 302.86,144.00 C305.34,144.00 327.01,123.45 326.97,121.14 C326.95,120.24 319.63,112.01 310.71,102.84 C291.35,82.97 287.76,80.77 274.48,80.67 C262.43,80.57 256.28,83.77 244.00,96.53 C238.77,101.96 216.90,124.20 195.39,145.95 C150.76,191.08 152.49,188.69 152.52,205.00 C152.54,220.31 152.52,220.28 194.15,261.57 C213.59,280.86 235.12,302.40 242.00,309.44 C257.76,325.58 262.90,328.23 277.09,327.59 C281.62,327.38 285.52,326.45 289.52,324.62 ZM 414.11 325.20 C417.73,323.62 429.38,312.58 467.85,274.24 C524.54,217.76 522.51,220.36 522.48,204.00 C522.46,189.55 520.60,186.68 494.66,161.11 C483.16,149.78 461.55,128.26 446.63,113.29 C415.12,81.69 414.11,81.00 399.47,81.00 C392.10,81.00 390.16,81.40 384.52,84.06 C378.66,86.83 374.77,90.48 343.72,122.31 C324.84,141.67 304.92,162.28 299.45,168.13 C293.98,173.97 288.89,178.81 288.15,178.88 C287.41,178.95 283.87,176.31 280.28,173.02 C276.69,169.73 273.41,167.24 273.00,167.50 C272.59,167.75 271.72,172.36 271.07,177.73 C270.43,183.10 268.59,195.15 266.99,204.50 C265.39,213.85 263.77,224.57 263.40,228.32 L 262.71 235.15 L 266.60 234.47 C268.75,234.10 278.60,231.78 288.50,229.31 C298.40,226.84 308.52,224.40 310.98,223.90 C320.24,221.99 327.00,219.69 327.00,218.46 C327.00,217.75 324.30,214.81 321.00,211.92 C317.70,209.03 315.02,205.95 315.03,205.08 C315.05,204.21 334.18,184.38 357.53,161.00 L 400.00 118.50 L 442.54 161.24 C479.65,198.53 484.95,204.23 484.06,205.89 C483.50,206.94 472.98,217.53 460.67,229.43 C448.37,241.33 429.82,260.05 419.44,271.03 C409.07,282.02 400.21,291.00 399.77,291.00 C399.32,291.00 393.06,284.92 385.85,277.50 C378.65,270.08 372.08,264.00 371.26,264.00 C369.66,264.00 347.71,286.41 347.19,288.58 C346.77,290.32 378.55,322.23 383.00,324.53 C388.51,327.38 391.89,327.95 401.00,327.57 C406.67,327.33 411.03,326.55 414.11,325.20 Z" fill="rgb(253,254,254)"/>
</g>
</svg>